<?xml version="1.0" encoding="UTF-8" standalone="no"?>
<!-- Created with Inkscape (http://www.inkscape.org/) -->

<svg
   xmlns:dc="http://purl.org/dc/elements/1.1/"
   xmlns:cc="http://creativecommons.org/ns#"
   xmlns:rdf="http://www.w3.org/1999/02/22-rdf-syntax-ns#"
   xmlns:svg="http://www.w3.org/2000/svg"
   xmlns="http://www.w3.org/2000/svg"
   xmlns:xlink="http://www.w3.org/1999/xlink"
   xmlns:sodipodi="http://sodipodi.sourceforge.net/DTD/sodipodi-0.dtd"
   xmlns:inkscape="http://www.inkscape.org/namespaces/inkscape"
   width="16.933332mm"
   height="16.93334mm"
   viewBox="0 0 16.933332 16.93334"
   version="1.1"
   id="svg8"
   inkscape:version="0.92.4 (5da689c313, 2019-01-14)"
   sodipodi:docname="export.svg"
   inkscape:export-filename="D:\Repositories\Grimoire\Graphics\export.png"
   inkscape:export-xdpi="96"
   inkscape:export-ydpi="96">
  <defs
     id="defs2">
    <linearGradient
       inkscape:collect="always"
       id="linearGradient4534">
      <stop
         style="stop-color:#0074ff;stop-opacity:1"
         offset="0"
         id="stop4530" />
      <stop
         id="stop4540"
         offset="0.73429877"
         style="stop-color:#0071ff;stop-opacity:1" />
      <stop
         style="stop-color:#002cff;stop-opacity:1"
         offset="1"
         id="stop4532" />
    </linearGradient>
    <radialGradient
       inkscape:collect="always"
       xlink:href="#linearGradient4534"
       id="radialGradient4538"
       cx="93.277107"
       cy="128.88748"
       fx="93.277107"
       fy="128.88748"
       r="55.324791"
       gradientTransform="matrix(0.15293716,-0.00543815,0.00543815,0.15293717,62.254683,141.97551)"
       gradientUnits="userSpaceOnUse" />
  </defs>
  <sodipodi:namedview
     id="base"
     pagecolor="#ffffff"
     bordercolor="#666666"
     borderopacity="1.0"
     inkscape:pageopacity="0.0"
     inkscape:pageshadow="2"
     inkscape:zoom="3.959798"
     inkscape:cx="85.042671"
     inkscape:cy="-12.643947"
     inkscape:document-units="mm"
     inkscape:current-layer="layer1"
     showgrid="false"
     inkscape:window-width="1920"
     inkscape:window-height="1017"
     inkscape:window-x="1912"
     inkscape:window-y="-8"
     inkscape:window-maximized="1" />
  <metadata
     id="metadata5">
    <rdf:RDF>
      <cc:Work
         rdf:about="">
        <dc:format>image/svg+xml</dc:format>
        <dc:type
           rdf:resource="http://purl.org/dc/dcmitype/StillImage" />
        <dc:title></dc:title>
      </cc:Work>
    </rdf:RDF>
  </metadata>
  <g
     inkscape:label="Camada 1"
     inkscape:groupmode="layer"
     id="layer1"
     transform="translate(-68.754463,-152.71342)">
    <path
       style="fill:url(#radialGradient4538);fill-opacity:1;stroke:none;stroke-width:0.0404902;stroke-opacity:1"
       d="m 77.356005,152.71431 c -0.144475,-0.002 -0.289602,-5.4e-4 -0.435633,0.005 -4.672999,0.16617 -8.326387,4.08874 -8.160225,8.76174 0.166162,4.673 4.088738,8.32639 8.761739,8.16023 4.673002,-0.16617 8.326389,-4.08874 8.160225,-8.76174 -0.160971,-4.52697 -3.847398,-8.09722 -8.326106,-8.16488 z"
       id="path815"
       inkscape:connector-curvature="0"
       sodipodi:nodetypes="scscss" />
    <g
       id="g855"
       style="fill:#ffffff"
       transform="matrix(0.96596428,0,0,0.96596428,25.981547,2.4915203)">
      <path
         id="rect829"
         transform="matrix(0.26458333,0,0,0.26458333,68.754463,152.71342)"
         d="m -71.787109,33.464844 c -0.98822,0 -1.785157,0.794983 -1.785157,1.783203 v 22.503906 c 0,0.98822 0.796937,1.783203 1.785157,1.783203 h 22.503906 c 0.98822,0 1.783203,-0.794983 1.783203,-1.783203 V 39.421875 l -9.482422,9.482422 c -0.698774,0.698759 -1.822699,0.698759 -2.521484,0 l -3.791016,-3.791016 c -0.698785,-0.698797 -0.698774,-1.822687 0,-2.521484 l 9.126953,-9.126953 z"
         style="fill:#ffffff;fill-opacity:1;stroke:none;stroke-width:0.99999994;stroke-opacity:1"
         inkscape:connector-curvature="0" />
      <path
         inkscape:connector-curvature="0"
         id="rect831"
         d="m 54.494552,160.19339 c -0.06371,0.0587 -0.08558,0.15515 0.02415,0.25326 0.2891,0.28881 0.523239,0.51992 0.772778,0.76705 l -2.893667,2.89366 c -0.131427,0.13144 -0.131427,0.34289 2e-6,0.47432 l 0.713023,0.71302 c 0.131429,0.13143 0.342886,0.13143 0.474313,0 l 2.893927,-2.89393 c 0.227471,0.22811 0.430811,0.4287 0.696661,0.69979 0.157175,0.16049 0.363142,0.21953 0.36314,-0.0603 l -4e-6,-2.69054 c 4e-6,-0.11814 -0.09511,-0.21325 -0.213257,-0.21325 h -2.690537 c -0.04888,2e-5 -0.102302,0.0217 -0.140527,0.0569 z"
         style="fill:#ffffff;fill-opacity:1;stroke:none;stroke-width:0.17367718;stroke-opacity:1" />
    </g>
  </g>
</svg>
