<?xml version="1.0" encoding="UTF-8" standalone="no"?>
<!-- Created with Inkscape (http://www.inkscape.org/) -->

<svg
   xmlns:dc="http://purl.org/dc/elements/1.1/"
   xmlns:cc="http://creativecommons.org/ns#"
   xmlns:rdf="http://www.w3.org/1999/02/22-rdf-syntax-ns#"
   xmlns:svg="http://www.w3.org/2000/svg"
   xmlns="http://www.w3.org/2000/svg"
   xmlns:xlink="http://www.w3.org/1999/xlink"
   xmlns:sodipodi="http://sodipodi.sourceforge.net/DTD/sodipodi-0.dtd"
   xmlns:inkscape="http://www.inkscape.org/namespaces/inkscape"
   width="16.933332mm"
   height="16.93334mm"
   viewBox="0 0 16.933332 16.93334"
   version="1.1"
   id="svg8"
   inkscape:version="0.92.4 (5da689c313, 2019-01-14)"
   sodipodi:docname="import.svg"
   inkscape:export-filename="D:\Repositories\Grimoire\Graphics\import.png"
   inkscape:export-xdpi="96"
   inkscape:export-ydpi="96">
  <defs
     id="defs2">
    <linearGradient
       inkscape:collect="always"
       id="linearGradient4534">
      <stop
         style="stop-color:#0074ff;stop-opacity:1"
         offset="0"
         id="stop4530" />
      <stop
         id="stop4540"
         offset="0.73429877"
         style="stop-color:#0071ff;stop-opacity:1" />
      <stop
         style="stop-color:#002cff;stop-opacity:1"
         offset="1"
         id="stop4532" />
    </linearGradient>
    <radialGradient
       inkscape:collect="always"
       xlink:href="#linearGradient4534"
       id="radialGradient4538"
       cx="93.277107"
       cy="128.88748"
       fx="93.277107"
       fy="128.88748"
       r="55.324791"
       gradientTransform="matrix(0.15293716,-0.00543815,0.00543815,0.15293717,62.254683,141.97551)"
       gradientUnits="userSpaceOnUse" />
  </defs>
  <sodipodi:namedview
     id="base"
     pagecolor="#ffffff"
     bordercolor="#666666"
     borderopacity="1.0"
     inkscape:pageopacity="0.0"
     inkscape:pageshadow="2"
     inkscape:zoom="3.959798"
     inkscape:cx="85.042671"
     inkscape:cy="-12.643947"
     inkscape:document-units="mm"
     inkscape:current-layer="layer1"
     showgrid="false"
     inkscape:window-width="1920"
     inkscape:window-height="1017"
     inkscape:window-x="1912"
     inkscape:window-y="-8"
     inkscape:window-maximized="1" />
  <metadata
     id="metadata5">
    <rdf:RDF>
      <cc:Work
         rdf:about="">
        <dc:format>image/svg+xml</dc:format>
        <dc:type
           rdf:resource="http://purl.org/dc/dcmitype/StillImage" />
        <dc:title></dc:title>
      </cc:Work>
    </rdf:RDF>
  </metadata>
  <g
     inkscape:label="Camada 1"
     inkscape:groupmode="layer"
     id="layer1"
     transform="translate(-68.754463,-152.71342)">
    <path
       style="fill:url(#radialGradient4538);fill-opacity:1;stroke:none;stroke-width:0.0404902;stroke-opacity:1"
       d="m 77.356005,152.71431 c -0.144475,-0.002 -0.289602,-5.4e-4 -0.435633,0.005 -4.672999,0.16617 -8.326387,4.08874 -8.160225,8.76174 0.166162,4.673 4.088738,8.32639 8.761739,8.16023 4.673002,-0.16617 8.326389,-4.08874 8.160225,-8.76174 -0.160971,-4.52697 -3.847398,-8.09722 -8.326106,-8.16488 z"
       id="path815"
       inkscape:connector-curvature="0"
       sodipodi:nodetypes="scscss" />
    <g
       id="g859"
       style="fill:#ffffff"
       transform="translate(15.517258,-12.109223)">
      <path
         id="path846"
         transform="matrix(0.26458333,0,0,0.26458333,68.754463,152.71342)"
         d="m -39.464844,67.662109 c -0.988221,0 -1.785156,0.79497 -1.785156,1.783203 v 22.503907 c 0,0.988233 0.796935,1.783203 1.785156,1.783203 h 22.503906 c 0.988222,0 1.783204,-0.79497 1.783204,-1.783203 V 73.619141 l -6.585938,6.585937 c 1.303752,1.288997 2.526363,2.500545 4.03711,4.009766 0.57812,0.516964 0.464566,1.024063 0.128906,1.333984 h -0.002 c -0.201332,0.185575 -0.482584,0.300555 -0.740235,0.300781 h -14.175781 c -0.622348,-1.51e-4 -1.12293,-0.500747 -1.123047,-1.123047 V 70.550781 c -4e-6,-1.474545 1.084664,-1.162668 1.914063,-0.318359 1.394373,1.41659 2.457241,2.469709 3.646484,3.662109 l 6.232422,-6.232422 z"
         style="fill:#ffffff;fill-opacity:1;stroke:none;stroke-width:0.99999994;stroke-opacity:1"
         inkscape:connector-curvature="0" />
      <path
         style="fill:#ffffff;fill-opacity:1;stroke:none;stroke-width:0.17367718;stroke-opacity:1"
         d="m 63.3109,174.94609 c 0.06371,-0.0588 0.08558,-0.15514 -0.02415,-0.25326 -0.289104,-0.28881 -0.522994,-0.52016 -0.772742,-0.76708 l 2.893661,-2.89366 c 0.13143,-0.13144 0.131432,-0.34289 2e-6,-0.47432 l -0.713028,-0.71302 c -0.131423,-0.13143 -0.342885,-0.13143 -0.474313,0 l -2.893925,2.89393 c -0.227473,-0.22811 -0.430463,-0.42905 -0.696811,-0.69964 -0.157419,-0.16025 -0.363136,-0.21954 -0.363135,0.0603 l 1e-6,2.69054 c 2.2e-5,0.11811 0.09514,0.21322 0.213261,0.21325 h 2.690532 c 0.0489,-4e-5 0.102311,-0.0217 0.140523,-0.0569 z"
         id="path848"
         inkscape:connector-curvature="0" />
    </g>
  </g>
</svg>
