<?xml version="1.0" encoding="UTF-8" standalone="no"?>
<!-- Created with Inkscape (http://www.inkscape.org/) -->

<svg
   xmlns:dc="http://purl.org/dc/elements/1.1/"
   xmlns:cc="http://creativecommons.org/ns#"
   xmlns:rdf="http://www.w3.org/1999/02/22-rdf-syntax-ns#"
   xmlns:svg="http://www.w3.org/2000/svg"
   xmlns="http://www.w3.org/2000/svg"
   xmlns:sodipodi="http://sodipodi.sourceforge.net/DTD/sodipodi-0.dtd"
   xmlns:inkscape="http://www.inkscape.org/namespaces/inkscape"
   width="58.520306mm"
   height="39.674786mm"
   viewBox="0 0 58.520306 39.674786"
   version="1.1"
   id="svg8"
   inkscape:version="0.92.4 (5da689c313, 2019-01-14)"
   sodipodi:docname="razor.svg">
  <defs
     id="defs2" />
  <sodipodi:namedview
     id="base"
     pagecolor="#ffffff"
     bordercolor="#666666"
     borderopacity="1.0"
     inkscape:pageopacity="0.0"
     inkscape:pageshadow="2"
     inkscape:zoom="1.4"
     inkscape:cx="169.74347"
     inkscape:cy="-0.85314498"
     inkscape:document-units="mm"
     inkscape:current-layer="g872"
     showgrid="false"
     inkscape:window-width="1920"
     inkscape:window-height="1017"
     inkscape:window-x="1912"
     inkscape:window-y="-8"
     inkscape:window-maximized="1" />
  <metadata
     id="metadata5">
    <rdf:RDF>
      <cc:Work
         rdf:about="">
        <dc:format>image/svg+xml</dc:format>
        <dc:type
           rdf:resource="http://purl.org/dc/dcmitype/StillImage" />
        <dc:title></dc:title>
      </cc:Work>
    </rdf:RDF>
  </metadata>
  <g
     inkscape:label="Camada 1"
     inkscape:groupmode="layer"
     id="layer1"
     transform="translate(-66.003234,-92.747347)">
    <g
       id="g846">
      <g
         id="g862"
         transform="translate(4.543582,27.261492)">
        <g
           id="g872"
           transform="translate(37.417734,45.43582)">
          <g
             id="g967">
            <rect
               ry="0.058128536"
               y="20.050035"
               x="24.041918"
               height="39.674786"
               width="58.520306"
               id="rect890"
               style="fill:#5c2d91;fill-opacity:1;stroke:none;stroke-width:1.01626527;stroke-miterlimit:4;stroke-dasharray:none;stroke-opacity:1" />
            <g
               id="g914">
              <g
                 id="g900"
                 transform="translate(-0.27002166)">
                <g
                   id="text817"
                   style="font-style:normal;font-weight:normal;font-size:10.58333302px;line-height:1.25;font-family:sans-serif;letter-spacing:0px;word-spacing:0px;fill:#ffffff;fill-opacity:1;stroke:none;stroke-width:0.26458332"
                   aria-label=".NET">
                  <path
                     id="path934"
                     style="font-style:normal;font-variant:normal;font-weight:normal;font-stretch:normal;font-family:'Segoe UI';-inkscape-font-specification:'Segoe UI';fill:#ffffff;stroke-width:0.26458332"
                     d="m 28.399493,38.498686 q -0.237712,0 -0.408244,-0.170532 -0.165365,-0.170532 -0.165365,-0.408244 0,-0.237711 0.165365,-0.408243 0.170532,-0.1757 0.408244,-0.1757 0.242879,0 0.413411,0.1757 0.170533,0.170532 0.170533,0.408243 0,0.237712 -0.170533,0.408244 -0.170532,0.170532 -0.413411,0.170532 z"
                     inkscape:connector-curvature="0" />
                  <path
                     id="path936"
                     style="font-style:normal;font-variant:normal;font-weight:normal;font-stretch:normal;font-family:'Segoe UI';-inkscape-font-specification:'Segoe UI';fill:#ffffff;stroke-width:0.26458332"
                     d="M 36.486854,38.384998 H 35.42232 l -3.813721,-5.906616 q -0.144694,-0.222208 -0.237711,-0.465088 h -0.03101 q 0.04134,0.237712 0.04134,1.018026 v 5.353678 h -0.868164 v -7.4104 H 31.6396 l 3.710368,5.813599 q 0.232544,0.361735 0.299723,0.496093 h 0.02067 q -0.05168,-0.320394 -0.05168,-1.090372 v -5.21932 h 0.868164 z"
                     inkscape:connector-curvature="0" />
                  <path
                     id="path938"
                     style="font-style:normal;font-variant:normal;font-weight:normal;font-stretch:normal;font-family:'Segoe UI';-inkscape-font-specification:'Segoe UI';fill:#ffffff;stroke-width:0.26458332"
                     d="m 42.357297,38.384998 h -3.927409 v -7.4104 h 3.762044 v 0.785482 h -2.89388 v 2.464966 h 2.676839 v 0.780314 h -2.676839 v 2.594157 h 3.059245 z"
                     inkscape:connector-curvature="0" />
                  <path
                     id="path940"
                     style="font-style:normal;font-variant:normal;font-weight:normal;font-stretch:normal;font-family:'Segoe UI';-inkscape-font-specification:'Segoe UI';fill:#ffffff;stroke-width:0.26458332"
                     d="m 48.165728,31.76008 h -2.139404 v 6.624918 H 45.15816 V 31.76008 h -2.134237 v -0.785482 h 5.141805 z"
                     inkscape:connector-curvature="0" />
                </g>
                <g
                   id="g832"
                   transform="matrix(0.61535889,0,0,0.61535889,29.529195,12.374307)">
                  <circle
                     r="16.83798"
                     cy="35.610401"
                     cx="53.186634"
                     id="path823"
                     style="fill:none;fill-opacity:1;stroke:#ffffff;stroke-width:1.06500006;stroke-miterlimit:4;stroke-dasharray:none;stroke-opacity:1" />
                  <circle
                     style="fill:#35cdee;fill-opacity:1;stroke:none;stroke-width:0.09810543;stroke-opacity:1"
                     id="circle825"
                     cx="53.186634"
                     cy="35.610401"
                     r="6.243392" />
                </g>
                <rect
                   style="fill:#5c2d91;fill-opacity:1;stroke:none;stroke-width:1.06500006;stroke-miterlimit:4;stroke-dasharray:none;stroke-opacity:1"
                   id="rect834"
                   width="15.591517"
                   height="12.284225"
                   x="66.901787"
                   y="28.145372"
                   ry="0.060916077" />
                <g
                   id="text821"
                   style="font-style:normal;font-weight:normal;font-size:10.58333302px;line-height:1.25;font-family:sans-serif;letter-spacing:0px;word-spacing:0px;fill:#ffffff;fill-opacity:1;stroke:none;stroke-width:0.26458332"
                   aria-label="re">
                  <path
                     id="path916"
                     style="font-style:normal;font-variant:normal;font-weight:normal;font-stretch:normal;font-family:'Segoe UI';-inkscape-font-specification:'Segoe UI';fill:#ffffff;stroke-width:0.26458332"
                     d="m 73.297579,32.77684 q -0.222208,-0.170532 -0.640787,-0.170532 -0.542603,0 -0.909506,0.511597 -0.361735,0.511596 -0.361735,1.395263 v 2.69751 h -0.847493 v -5.291666 h 0.847493 v 1.090372 h 0.02067 q 0.180867,-0.558105 0.552938,-0.868164 0.37207,-0.315226 0.83199,-0.315226 0.330729,0 0.506429,0.07235 z"
                     inkscape:connector-curvature="0" />
                  <path
                     id="path918"
                     style="font-style:normal;font-variant:normal;font-weight:normal;font-stretch:normal;font-family:'Segoe UI';-inkscape-font-specification:'Segoe UI';fill:#ffffff;stroke-width:0.26458332"
                     d="m 78.47039,34.776718 h -3.736206 q 0.02067,0.883667 0.475423,1.364258 0.454753,0.480591 1.25057,0.480591 0.894002,0 1.64331,-0.589112 v 0.795818 q -0.697631,0.506429 -1.844848,0.506429 -1.121379,0 -1.762167,-0.718303 -0.640787,-0.72347 -0.640787,-2.030884 0,-1.235066 0.697632,-2.010213 0.702799,-0.780314 1.741495,-0.780314 1.038697,0 1.607137,0.671794 0.568441,0.671793 0.568441,1.865519 z m -0.868164,-0.718302 q -0.0052,-0.733805 -0.356567,-1.142049 -0.346232,-0.408244 -0.96635,-0.408244 -0.599446,0 -1.018025,0.428914 -0.418579,0.428915 -0.516765,1.121379 z"
                     inkscape:connector-curvature="0" />
                </g>
              </g>
              <g
                 id="text886"
                 style="font-style:normal;font-weight:normal;font-size:10.58333302px;line-height:1.25;font-family:sans-serif;letter-spacing:0px;word-spacing:0px;fill:#ffffff;fill-opacity:1;stroke:none;stroke-width:0.26458332"
                 aria-label="@Razor
">
                <path
                   id="path921"
                   style="font-style:normal;font-variant:normal;font-weight:normal;font-stretch:normal;font-family:'Segoe UI';-inkscape-font-specification:'Segoe UI';fill:#ffffff;stroke-width:0.26458332"
                   d="m 42.239181,53.034527 h -0.02584 q -0.377238,1.229899 -1.483113,1.229899 -0.707968,0 -1.14205,-0.521932 -0.428914,-0.521932 -0.428914,-1.405599 0,-1.167887 0.594279,-1.937866 0.599447,-0.775147 1.570964,-0.775147 0.37207,0 0.661458,0.191203 0.294555,0.191203 0.377238,0.480591 h 0.02067 q 0.01034,-0.144694 0.05168,-0.594279 h 0.645955 q -0.242879,2.847371 -0.242879,2.899048 0,1.069702 0.614949,1.069702 0.558106,0 0.925009,-0.604614 0.37207,-0.604614 0.37207,-1.565796 0,-1.421102 -0.89917,-2.320272 -0.89917,-0.89917 -2.490804,-0.89917 -1.53479,0 -2.537313,1.07487 -1.002522,1.07487 -1.002522,2.687174 0,1.586467 0.950846,2.563151 0.956014,0.971517 2.573486,0.971517 1.276408,0 2.180745,-0.423746 v 0.640787 q -0.894002,0.382406 -2.232421,0.382406 -1.881022,0 -3.033407,-1.131714 -1.147217,-1.136881 -1.147217,-2.971395 0,-1.891357 1.204061,-3.136759 1.209229,-1.245402 3.085083,-1.245402 1.756999,0 2.909383,1.043864 1.152385,1.043864 1.152385,2.723348 0,1.229899 -0.609782,2.020548 -0.604615,0.785482 -1.477946,0.785482 -1.131714,0 -1.136882,-1.229899 z m -0.925008,-2.811198 q -0.640788,0 -1.038696,0.609782 -0.392741,0.609782 -0.392741,1.514119 0,0.609782 0.26355,0.961182 0.268717,0.3514 0.713135,0.3514 0.640787,0 1.012858,-0.63562 0.377238,-0.640788 0.377238,-1.694987 0,-1.105876 -0.935344,-1.105876 z"
                   inkscape:connector-curvature="0" />
                <path
                   id="path923"
                   style="font-style:normal;font-variant:normal;font-weight:normal;font-stretch:normal;font-family:'Segoe UI';-inkscape-font-specification:'Segoe UI';fill:#ffffff;stroke-width:0.26458332"
                   d="M 52.615809,55.204937 H 51.58228 L 50.342046,53.127544 Q 50.171514,52.838156 50.011317,52.636618 49.85112,52.429913 49.680588,52.300722 49.515223,52.17153 49.318853,52.114686 49.12765,52.052675 48.884771,52.052675 h -0.713135 v 3.152262 h -0.868164 v -7.4104 h 2.211751 q 0.485759,0 0.894002,0.124023 0.413412,0.118856 0.713135,0.366903 0.304891,0.248047 0.475423,0.620117 0.170532,0.366903 0.170532,0.862996 0,0.387574 -0.118855,0.713135 -0.113688,0.320394 -0.330729,0.573609 -0.211874,0.253214 -0.516765,0.434082 -0.299723,0.175699 -0.676961,0.273885 v 0.02067 q 0.186035,0.08268 0.320394,0.191203 0.139526,0.103353 0.26355,0.248047 0.124023,0.144694 0.242879,0.330729 0.124023,0.180868 0.273885,0.423747 z m -4.444173,-6.624918 v 2.687174 h 1.178223 q 0.325561,0 0.599446,-0.09819 0.279053,-0.09819 0.480591,-0.279053 0.201538,-0.186035 0.315226,-0.449585 0.113688,-0.268717 0.113688,-0.599447 0,-0.594278 -0.387573,-0.925008 -0.382406,-0.335896 -1.111043,-0.335896 z"
                   inkscape:connector-curvature="0" />
                <path
                   id="path925"
                   style="font-style:normal;font-variant:normal;font-weight:normal;font-stretch:normal;font-family:'Segoe UI';-inkscape-font-specification:'Segoe UI';fill:#ffffff;stroke-width:0.26458332"
                   d="m 57.302861,55.204937 h -0.847493 v -0.826823 h -0.02067 q -0.552937,0.950846 -1.627807,0.950846 -0.79065,0 -1.240235,-0.418579 -0.444417,-0.418579 -0.444417,-1.111043 0,-1.483113 1.746664,-1.725993 l 1.586466,-0.222208 q 0,-1.348755 -1.090373,-1.348755 -0.956014,0 -1.725993,0.651123 v -0.868164 q 0.780315,-0.496094 1.79834,-0.496094 1.865519,0 1.865519,1.97404 z m -0.847493,-2.676839 -1.276408,0.1757 q -0.589111,0.08268 -0.888835,0.294555 -0.299723,0.206706 -0.299723,0.738973 0,0.387574 0.273885,0.63562 0.279053,0.24288 0.738973,0.24288 0.630453,0 1.038696,-0.43925 0.413412,-0.444417 0.413412,-1.121379 z"
                   inkscape:connector-curvature="0" />
                <path
                   id="path927"
                   style="font-style:normal;font-variant:normal;font-weight:normal;font-stretch:normal;font-family:'Segoe UI';-inkscape-font-specification:'Segoe UI';fill:#ffffff;stroke-width:0.26458332"
                   d="m 62.599696,50.15615 -3.131592,4.325317 h 3.100586 v 0.72347 h -4.345988 v -0.26355 l 3.131592,-4.304646 H 58.517258 V 49.91327 h 4.082438 z"
                   inkscape:connector-curvature="0" />
                <path
                   id="path929"
                   style="font-style:normal;font-variant:normal;font-weight:normal;font-stretch:normal;font-family:'Segoe UI';-inkscape-font-specification:'Segoe UI';fill:#ffffff;stroke-width:0.26458332"
                   d="m 65.917322,55.32896 q -1.173055,0 -1.875854,-0.738973 -0.697632,-0.74414 -0.697632,-1.968872 0,-1.333251 0.728637,-2.08256 0.728638,-0.749308 1.968873,-0.749308 1.18339,0 1.844848,0.728638 0.666626,0.728637 0.666626,2.020548 0,1.266073 -0.718302,2.030884 -0.713135,0.759643 -1.917196,0.759643 z m 0.06201,-4.826578 q -0.816488,0 -1.291911,0.558105 Q 64.212,51.613425 64.212,52.59011 q 0,0.940511 0.480591,1.483113 0.48059,0.542603 1.286743,0.542603 0.821655,0 1.260905,-0.532268 0.444417,-0.532267 0.444417,-1.514119 0,-0.992187 -0.444417,-1.529622 -0.43925,-0.537435 -1.260905,-0.537435 z"
                   inkscape:connector-curvature="0" />
                <path
                   id="path931"
                   style="font-style:normal;font-variant:normal;font-weight:normal;font-stretch:normal;font-family:'Segoe UI';-inkscape-font-specification:'Segoe UI';fill:#ffffff;stroke-width:0.26458332"
                   d="m 72.666266,50.771099 q -0.222209,-0.170532 -0.640788,-0.170532 -0.542602,0 -0.909505,0.511597 -0.361735,0.511596 -0.361735,1.395263 v 2.69751 H 69.906745 V 49.91327 h 0.847493 v 1.090373 h 0.02067 q 0.180867,-0.558105 0.552937,-0.868164 0.372071,-0.315226 0.831991,-0.315226 0.330729,0 0.506429,0.07235 z"
                   inkscape:connector-curvature="0" />
              </g>
            </g>
          </g>
        </g>
      </g>
    </g>
  </g>
</svg>
