<?xml version="1.0" encoding="UTF-8" standalone="no"?>
<!-- Created with Inkscape (http://www.inkscape.org/) -->

<svg
   xmlns:dc="http://purl.org/dc/elements/1.1/"
   xmlns:cc="http://creativecommons.org/ns#"
   xmlns:rdf="http://www.w3.org/1999/02/22-rdf-syntax-ns#"
   xmlns:svg="http://www.w3.org/2000/svg"
   xmlns="http://www.w3.org/2000/svg"
   xmlns:xlink="http://www.w3.org/1999/xlink"
   xmlns:sodipodi="http://sodipodi.sourceforge.net/DTD/sodipodi-0.dtd"
   xmlns:inkscape="http://www.inkscape.org/namespaces/inkscape"
   width="16.933332mm"
   height="16.93334mm"
   viewBox="0 0 16.933332 16.93334"
   version="1.1"
   id="svg8"
   inkscape:version="0.92.4 (5da689c313, 2019-01-14)"
   sodipodi:docname="about.svg"
   inkscape:export-filename="D:\Repositories\Grimoire\Graphics\edit.png"
   inkscape:export-xdpi="96"
   inkscape:export-ydpi="96">
  <defs
     id="defs2">
    <linearGradient
       inkscape:collect="always"
       id="linearGradient4534">
      <stop
         style="stop-color:#0074ff;stop-opacity:1"
         offset="0"
         id="stop4530" />
      <stop
         id="stop4540"
         offset="0.73429877"
         style="stop-color:#0071ff;stop-opacity:1" />
      <stop
         style="stop-color:#002cff;stop-opacity:1"
         offset="1"
         id="stop4532" />
    </linearGradient>
    <radialGradient
       inkscape:collect="always"
       xlink:href="#linearGradient4534"
       id="radialGradient4538"
       cx="93.277107"
       cy="128.88748"
       fx="93.277107"
       fy="128.88748"
       r="55.324791"
       gradientTransform="matrix(0.5780302,-0.02055364,0.02055364,0.57803024,-24.566098,-40.583697)"
       gradientUnits="userSpaceOnUse" />
  </defs>
  <sodipodi:namedview
     id="base"
     pagecolor="#ffffff"
     bordercolor="#666666"
     borderopacity="1.0"
     inkscape:pageopacity="0.0"
     inkscape:pageshadow="2"
     inkscape:zoom="7.919596"
     inkscape:cx="16.380632"
     inkscape:cy="19.544409"
     inkscape:document-units="mm"
     inkscape:current-layer="layer1"
     showgrid="false"
     inkscape:window-width="1920"
     inkscape:window-height="1017"
     inkscape:window-x="1912"
     inkscape:window-y="-8"
     inkscape:window-maximized="1" />
  <metadata
     id="metadata5">
    <rdf:RDF>
      <cc:Work
         rdf:about="">
        <dc:format>image/svg+xml</dc:format>
        <dc:type
           rdf:resource="http://purl.org/dc/dcmitype/StillImage" />
        <dc:title></dc:title>
      </cc:Work>
    </rdf:RDF>
  </metadata>
  <g
     inkscape:label="Camada 1"
     inkscape:groupmode="layer"
     id="layer1"
     transform="translate(-68.754463,-152.71342)">
    <path
       style="fill:url(#radialGradient4538);fill-opacity:1;stroke:none;stroke-width:0.15303382;stroke-opacity:1"
       d="M 32.509766,0.00390625 C 31.96372,-0.00434196 31.41521,0.00185918 30.863281,0.02148438 13.201553,0.64952846 -0.60652948,15.474986 0.02148438,33.136719 0.64949822,50.798451 15.474983,64.606522 33.136719,63.978516 50.798459,63.350472 64.606537,48.525014 63.978516,30.863281 63.37012,13.753478 49.437169,0.25960069 32.509766,0.00390625 Z"
       transform="matrix(0.26458333,0,0,0.26458333,68.754463,152.71342)"
       id="path815"
       inkscape:connector-curvature="0"
       sodipodi:nodetypes="scscss" />
    <g
       aria-label="?"
       style="font-style:normal;font-weight:normal;font-size:10.58333302px;line-height:1.25;font-family:sans-serif;letter-spacing:0px;word-spacing:0px;fill:#ffffff;fill-opacity:1;stroke:none;stroke-width:0.26458332"
       id="text829"
       transform="matrix(1.4097522,0,0,1.4097522,-5.718521,-59.707886)">
      <path
         d="m 60.700889,154.74264 q 0,0.76481 -0.72347,1.4211 -0.222208,0.18604 -0.444417,0.37724 -0.304891,0.27905 -0.496094,0.61495 -0.08785,0.1602 -0.211873,0.82682 -0.103353,0.56844 -0.5271,0.56844 -0.475423,0 -0.475423,-0.62011 0,-0.5116 0.268718,-1.0542 0.273885,-0.54261 0.692464,-0.87333 0.516764,-0.40825 0.666626,-0.58395 0.253214,-0.29972 0.253214,-0.66662 0,-0.38758 -0.310058,-0.64079 -0.304891,-0.25838 -0.800985,-0.25838 -0.330729,0 -0.707967,0.26871 -0.377238,0.26355 -0.516764,0.26355 -0.165365,0 -0.284221,-0.13436 -0.118855,-0.13952 -0.118855,-0.33589 0,-0.3359 0.470255,-0.60462 0.506429,-0.29455 1.229899,-0.29455 0.935343,0 1.483114,0.47025 0.552937,0.47026 0.552937,1.25574 z m -1.576131,4.9351 q 0,0.29456 -0.201538,0.48576 -0.19637,0.1912 -0.521932,0.1912 -0.315226,0 -0.511596,-0.18603 -0.196371,-0.18604 -0.196371,-0.4806 0,-0.30489 0.206706,-0.50126 0.206706,-0.20153 0.521932,-0.20153 0.310058,0 0.506429,0.19637 0.19637,0.1912 0.19637,0.49609 z"
         style="font-style:normal;font-variant:normal;font-weight:normal;font-stretch:normal;font-family:'Kristen ITC';-inkscape-font-specification:'Kristen ITC';stroke-width:0.26458332;fill:#ffffff"
         id="path831"
         inkscape:connector-curvature="0" />
    </g>
  </g>
</svg>
