<?xml version="1.0" encoding="UTF-8" standalone="no"?>
<!-- Created with Inkscape (http://www.inkscape.org/) -->

<svg
   xmlns:dc="http://purl.org/dc/elements/1.1/"
   xmlns:cc="http://creativecommons.org/ns#"
   xmlns:rdf="http://www.w3.org/1999/02/22-rdf-syntax-ns#"
   xmlns:svg="http://www.w3.org/2000/svg"
   xmlns="http://www.w3.org/2000/svg"
   xmlns:xlink="http://www.w3.org/1999/xlink"
   xmlns:sodipodi="http://sodipodi.sourceforge.net/DTD/sodipodi-0.dtd"
   xmlns:inkscape="http://www.inkscape.org/namespaces/inkscape"
   width="16.933332mm"
   height="16.93334mm"
   viewBox="0 0 16.933332 16.93334"
   version="1.1"
   id="svg8"
   inkscape:version="0.92.4 (5da689c313, 2019-01-14)"
   sodipodi:docname="save.svg"
   inkscape:export-filename="D:\Repositories\Grimoire\Graphics\save.png"
   inkscape:export-xdpi="96"
   inkscape:export-ydpi="96">
  <defs
     id="defs2">
    <linearGradient
       inkscape:collect="always"
       id="linearGradient4534">
      <stop
         style="stop-color:#0074ff;stop-opacity:1"
         offset="0"
         id="stop4530" />
      <stop
         id="stop4540"
         offset="0.73429877"
         style="stop-color:#0071ff;stop-opacity:1" />
      <stop
         style="stop-color:#002cff;stop-opacity:1"
         offset="1"
         id="stop4532" />
    </linearGradient>
    <radialGradient
       inkscape:collect="always"
       xlink:href="#linearGradient4534"
       id="radialGradient4538"
       cx="93.277107"
       cy="128.88748"
       fx="93.277107"
       fy="128.88748"
       r="55.324791"
       gradientTransform="matrix(0.15293716,-0.00543815,0.00543815,0.15293717,62.254683,141.97551)"
       gradientUnits="userSpaceOnUse" />
  </defs>
  <sodipodi:namedview
     id="base"
     pagecolor="#ffffff"
     bordercolor="#666666"
     borderopacity="1.0"
     inkscape:pageopacity="0.0"
     inkscape:pageshadow="2"
     inkscape:zoom="2.8"
     inkscape:cx="111.58159"
     inkscape:cy="-37.982785"
     inkscape:document-units="mm"
     inkscape:current-layer="layer1"
     showgrid="false"
     inkscape:window-width="1920"
     inkscape:window-height="1017"
     inkscape:window-x="1912"
     inkscape:window-y="-8"
     inkscape:window-maximized="1" />
  <metadata
     id="metadata5">
    <rdf:RDF>
      <cc:Work
         rdf:about="">
        <dc:format>image/svg+xml</dc:format>
        <dc:type
           rdf:resource="http://purl.org/dc/dcmitype/StillImage" />
        <dc:title></dc:title>
      </cc:Work>
    </rdf:RDF>
  </metadata>
  <g
     inkscape:label="Camada 1"
     inkscape:groupmode="layer"
     id="layer1"
     transform="translate(-68.754463,-152.71342)">
    <path
       style="fill:url(#radialGradient4538);fill-opacity:1;stroke:none;stroke-width:0.0404902;stroke-opacity:1"
       d="m 77.356005,152.71431 c -0.144475,-0.002 -0.289602,-5.4e-4 -0.435633,0.005 -4.672999,0.16617 -8.326387,4.08874 -8.160225,8.76174 0.166162,4.673 4.088738,8.32639 8.761739,8.16023 4.673002,-0.16617 8.326389,-4.08874 8.160225,-8.76174 -0.160971,-4.52697 -3.847398,-8.09722 -8.326106,-8.16488 z"
       id="path815"
       inkscape:connector-curvature="0"
       sodipodi:nodetypes="scscss" />
    <g
       id="g857"
       style="fill:#ffffff"
       transform="matrix(1.3043513,0,0,1.3043513,-47.278176,-52.210886)">
      <path
         id="rect845"
         transform="matrix(0.26458333,0,0,0.26458333,68.754463,152.71342)"
         d="m 90.535156,28.822266 c -1.088216,0 -1.96289,0.874674 -1.96289,1.96289 V 51.5 c 0,1.088217 0.874674,1.964844 1.96289,1.964844 H 111.25 c 1.08822,0 1.96484,-0.876627 1.96484,-1.964844 V 32.18565 c 0,-1.088215 -1.92045,-3.363384 -3.00867,-3.363384 h -1.98937 v 5.603515 c 0,1.088217 -0.87663,1.964844 -1.96485,1.964844 H 95.533203 c -1.088217,0 -1.964844,-0.876627 -1.964844,-1.964844 v -5.603515 z m 4.019532,13.746093 h 12.677732 c 1.08822,0 1.96485,0.874674 1.96485,1.962891 v 5.224609 c 0,1.088217 -0.87663,1.962891 -1.96485,1.962891 H 94.554688 c -1.088217,0 -1.964844,-0.874674 -1.964844,-1.962891 V 44.53125 c 0,-1.088217 0.876627,-1.962891 1.964844,-1.962891 z"
         style="fill:#ffffff;fill-opacity:1;stroke:none;stroke-width:0.99999994;stroke-opacity:1"
         inkscape:connector-curvature="0"
         sodipodi:nodetypes="sssssssscsssscssssssssss" />
      <rect
         ry="0.51971841"
         y="160.48965"
         x="95.399277"
         height="1.62345"
         width="1.6863507"
         id="rect850"
         style="fill:#ffffff;fill-opacity:1;stroke:none;stroke-width:0.2787492;stroke-opacity:1" />
    </g>
  </g>
</svg>
