<?xml version="1.0" encoding="UTF-8" standalone="no"?>
<!-- Created with Inkscape (http://www.inkscape.org/) -->

<svg
   xmlns:dc="http://purl.org/dc/elements/1.1/"
   xmlns:cc="http://creativecommons.org/ns#"
   xmlns:rdf="http://www.w3.org/1999/02/22-rdf-syntax-ns#"
   xmlns:svg="http://www.w3.org/2000/svg"
   xmlns="http://www.w3.org/2000/svg"
   xmlns:xlink="http://www.w3.org/1999/xlink"
   xmlns:sodipodi="http://sodipodi.sourceforge.net/DTD/sodipodi-0.dtd"
   xmlns:inkscape="http://www.inkscape.org/namespaces/inkscape"
   width="16.933332mm"
   height="16.93334mm"
   viewBox="0 0 16.933332 16.93334"
   version="1.1"
   id="svg8"
   inkscape:version="0.92.4 (5da689c313, 2019-01-14)"
   sodipodi:docname="error.svg"
   inkscape:export-filename="D:\Repositories\Grimoire\Graphics\error.png"
   inkscape:export-xdpi="96"
   inkscape:export-ydpi="96">
  <defs
     id="defs2">
    <linearGradient
       inkscape:collect="always"
       id="linearGradient4534">
      <stop
         style="stop-color:#ff0000;stop-opacity:1"
         offset="0"
         id="stop4530" />
      <stop
         id="stop4540"
         offset="0.73429877"
         style="stop-color:#ff3000;stop-opacity:1" />
      <stop
         style="stop-color:#ac0000;stop-opacity:1"
         offset="1"
         id="stop4532" />
    </linearGradient>
    <radialGradient
       inkscape:collect="always"
       xlink:href="#linearGradient4534"
       id="radialGradient4538"
       cx="93.277107"
       cy="128.88748"
       fx="93.277107"
       fy="128.88748"
       r="55.324791"
       gradientTransform="matrix(0.57803019,-0.02055364,0.02055364,0.57803023,-24.566098,-40.583696)"
       gradientUnits="userSpaceOnUse" />
  </defs>
  <sodipodi:namedview
     id="base"
     pagecolor="#ffffff"
     bordercolor="#666666"
     borderopacity="1.0"
     inkscape:pageopacity="0.0"
     inkscape:pageshadow="2"
     inkscape:zoom="11.2"
     inkscape:cx="30.370269"
     inkscape:cy="37.421283"
     inkscape:document-units="mm"
     inkscape:current-layer="layer1"
     showgrid="false"
     inkscape:window-width="1920"
     inkscape:window-height="1017"
     inkscape:window-x="1912"
     inkscape:window-y="-8"
     inkscape:window-maximized="1"
     showguides="false" />
  <metadata
     id="metadata5">
    <rdf:RDF>
      <cc:Work
         rdf:about="">
        <dc:format>image/svg+xml</dc:format>
        <dc:type
           rdf:resource="http://purl.org/dc/dcmitype/StillImage" />
        <dc:title />
      </cc:Work>
    </rdf:RDF>
  </metadata>
  <g
     inkscape:label="Camada 1"
     inkscape:groupmode="layer"
     id="layer1"
     transform="translate(-68.754463,-152.71342)">
    <path
       style="fill:url(#radialGradient4538);fill-opacity:1;stroke:none;stroke-width:0.15303382;stroke-opacity:1"
       d="M 32.509766,0.00390625 C 31.96372,-0.00434196 31.41521,0.00185918 30.863281,0.02148438 13.201553,0.64952845 -0.60652947,15.474986 0.02148438,33.136719 0.64949821,50.798451 15.474983,64.606522 33.136719,63.978516 50.798459,63.350472 64.606537,48.525014 63.978516,30.863281 63.37012,13.753478 49.437168,0.25960069 32.509766,0.00390625 Z"
       transform="matrix(0.26458333,0,0,0.26458333,68.754463,152.71342)"
       id="path815"
       inkscape:connector-curvature="0"
       sodipodi:nodetypes="scscss" />
    <path
       style="fill:#ffffff;fill-opacity:1;stroke:none;stroke-width:0.99999994;stroke-opacity:1"
       d="M 18.894531 15.140625 C 17.935748 15.140625 16.976855 15.507485 16.242188 16.242188 C 14.772851 17.711516 14.772855 20.077584 16.242188 21.546875 L 26.697266 31.998047 L 16.242188 42.453125 C 14.772851 43.922454 14.772855 46.288447 16.242188 47.757812 C 17.71155 49.227142 20.077535 49.227142 21.546875 47.757812 L 32.001953 37.302734 L 42.453125 47.757812 C 43.922488 49.227142 46.288473 49.227142 47.757812 47.757812 C 49.227153 46.288447 49.227176 43.922492 47.757812 42.453125 L 37.304688 31.998047 L 47.757812 21.546875 C 49.227149 20.077584 49.227176 17.711591 47.757812 16.242188 C 46.288484 14.772896 43.922458 14.772896 42.453125 16.242188 L 32.001953 26.695312 L 21.546875 16.242188 C 20.812207 15.507523 19.853318 15.140625 18.894531 15.140625 z "
       transform="matrix(0.26458333,0,0,0.26458333,68.754463,152.71342)"
       id="path3056" />
    <g
       id="g4552"
       transform="translate(18.931884,3.734876)" />
  </g>
</svg>
