<?xml version="1.0" encoding="UTF-8" standalone="no"?>
<!-- Created with Inkscape (http://www.inkscape.org/) -->

<svg
   xmlns:dc="http://purl.org/dc/elements/1.1/"
   xmlns:cc="http://creativecommons.org/ns#"
   xmlns:rdf="http://www.w3.org/1999/02/22-rdf-syntax-ns#"
   xmlns:svg="http://www.w3.org/2000/svg"
   xmlns="http://www.w3.org/2000/svg"
   xmlns:xlink="http://www.w3.org/1999/xlink"
   xmlns:sodipodi="http://sodipodi.sourceforge.net/DTD/sodipodi-0.dtd"
   xmlns:inkscape="http://www.inkscape.org/namespaces/inkscape"
   width="16.933332mm"
   height="16.93334mm"
   viewBox="0 0 16.933332 16.93334"
   version="1.1"
   id="svg8"
   inkscape:version="0.92.4 (5da689c313, 2019-01-14)"
   sodipodi:docname="reload.svg"
   inkscape:export-filename="D:\Repositories\Grimoire\Graphics\reload.png"
   inkscape:export-xdpi="96"
   inkscape:export-ydpi="96">
  <defs
     id="defs2">
    <linearGradient
       inkscape:collect="always"
       id="linearGradient4534">
      <stop
         style="stop-color:#0074ff;stop-opacity:1"
         offset="0"
         id="stop4530" />
      <stop
         id="stop4540"
         offset="0.73429877"
         style="stop-color:#0071ff;stop-opacity:1" />
      <stop
         style="stop-color:#002cff;stop-opacity:1"
         offset="1"
         id="stop4532" />
    </linearGradient>
    <radialGradient
       inkscape:collect="always"
       xlink:href="#linearGradient4534"
       id="radialGradient4538"
       cx="93.277107"
       cy="128.88748"
       fx="93.277107"
       fy="128.88748"
       r="55.324791"
       gradientTransform="matrix(0.15293716,-0.00543815,0.00543815,0.15293717,62.254683,141.97551)"
       gradientUnits="userSpaceOnUse" />
  </defs>
  <sodipodi:namedview
     id="base"
     pagecolor="#ffffff"
     bordercolor="#666666"
     borderopacity="1.0"
     inkscape:pageopacity="0.0"
     inkscape:pageshadow="2"
     inkscape:zoom="0.98994949"
     inkscape:cx="106.8204"
     inkscape:cy="51.186929"
     inkscape:document-units="mm"
     inkscape:current-layer="layer1"
     showgrid="false"
     inkscape:window-width="1920"
     inkscape:window-height="1017"
     inkscape:window-x="1912"
     inkscape:window-y="-8"
     inkscape:window-maximized="1" />
  <metadata
     id="metadata5">
    <rdf:RDF>
      <cc:Work
         rdf:about="">
        <dc:format>image/svg+xml</dc:format>
        <dc:type
           rdf:resource="http://purl.org/dc/dcmitype/StillImage" />
        <dc:title></dc:title>
      </cc:Work>
    </rdf:RDF>
  </metadata>
  <g
     inkscape:label="Camada 1"
     inkscape:groupmode="layer"
     id="layer1"
     transform="translate(-68.754463,-152.71342)">
    <path
       style="fill:url(#radialGradient4538);fill-opacity:1;stroke:none;stroke-width:0.0404902;stroke-opacity:1"
       d="m 77.356005,152.71431 c -0.144475,-0.002 -0.289602,-5.4e-4 -0.435633,0.005 -4.672999,0.16617 -8.326387,4.08874 -8.160225,8.76174 0.166162,4.673 4.088738,8.32639 8.761739,8.16023 4.673002,-0.16617 8.326389,-4.08874 8.160225,-8.76174 -0.160971,-4.52697 -3.847398,-8.09722 -8.326106,-8.16488 z"
       id="path815"
       inkscape:connector-curvature="0"
       sodipodi:nodetypes="scscss" />
    <path
       style="fill:#ffffff;fill-opacity:1;stroke:none;stroke-width:0.22276366;stroke-opacity:1"
       d="m 79.326289,156.21267 c -0.0371,-0.006 -0.109163,0.012 -0.2319,0.0444 l -1.725548,0.36678 c -0.306361,0.0651 -0.292054,0.0525 -0.07135,0.28367 l 1.132527,1.25784 c 0.237095,0.26325 0.235898,0.30758 0.33545,-0.06 l 0.06483,-0.19927 c 1.28386,0.61747 2.10121,1.91509 2.103637,3.33972 -0.0019,1.49555 -0.896911,2.82052 -2.23224,3.40044 -1.099507,0.25515 -0.807473,1.49782 0.390383,0.99719 1.733236,-0.73599 2.909421,-2.44929 2.910862,-4.39763 -0.0036,-1.88675 -1.116373,-3.59497 -2.840672,-4.36087 l 0.12922,-0.39766 c 0.06108,-0.18798 0.09663,-0.26457 0.03481,-0.27454 z m -4.009102,0.64915 c -1.715287,0.7437 -2.876607,2.4478 -2.877863,4.38392 0.0038,1.88265 1.111858,3.58789 2.830666,4.35607 l -0.12748,0.2741 c -0.133434,0.28675 -0.167388,0.29833 0.167943,0.25236 l 1.756874,-0.1549 c 0.311992,-0.0275 0.296372,-0.0166 0.10529,-0.27279 l -0.97198,-1.38618 c -0.20346,-0.29005 -0.196894,-0.33415 -0.340237,0.0187 l -0.139663,0.30064 c -1.342129,-0.59297 -2.209166,-1.92073 -2.212408,-3.38801 0.0018,-1.49685 0.898123,-2.82289 2.235265,-3.40219 1.032891,-0.31279 0.589683,-1.36736 -0.426407,-0.98172 z"
       id="path833"
       inkscape:connector-curvature="0"
       sodipodi:nodetypes="sccccccccccccsccccccccccccc" />
  </g>
</svg>
