<?xml version="1.0" encoding="UTF-8" standalone="no"?>
<!-- Created with Inkscape (http://www.inkscape.org/) -->

<svg
   xmlns:dc="http://purl.org/dc/elements/1.1/"
   xmlns:cc="http://creativecommons.org/ns#"
   xmlns:rdf="http://www.w3.org/1999/02/22-rdf-syntax-ns#"
   xmlns:svg="http://www.w3.org/2000/svg"
   xmlns="http://www.w3.org/2000/svg"
   xmlns:xlink="http://www.w3.org/1999/xlink"
   xmlns:sodipodi="http://sodipodi.sourceforge.net/DTD/sodipodi-0.dtd"
   xmlns:inkscape="http://www.inkscape.org/namespaces/inkscape"
   width="16.933332mm"
   height="16.93334mm"
   viewBox="0 0 16.933332 16.93334"
   version="1.1"
   id="svg8"
   inkscape:version="0.92.4 (5da689c313, 2019-01-14)"
   sodipodi:docname="vault.svg"
   inkscape:export-filename="D:\Repositories\Grimoire\Graphics\vault.png"
   inkscape:export-xdpi="96"
   inkscape:export-ydpi="96">
  <defs
     id="defs2">
    <linearGradient
       inkscape:collect="always"
       id="linearGradient4534">
      <stop
         style="stop-color:#0074ff;stop-opacity:1"
         offset="0"
         id="stop4530" />
      <stop
         id="stop4540"
         offset="0.73429877"
         style="stop-color:#0071ff;stop-opacity:1" />
      <stop
         style="stop-color:#002cff;stop-opacity:1"
         offset="1"
         id="stop4532" />
    </linearGradient>
    <radialGradient
       inkscape:collect="always"
       xlink:href="#linearGradient4534"
       id="radialGradient4538"
       cx="93.277107"
       cy="128.88748"
       fx="93.277107"
       fy="128.88748"
       r="55.324791"
       gradientTransform="matrix(0.15293716,-0.00543815,0.00543815,0.15293717,62.254683,141.97551)"
       gradientUnits="userSpaceOnUse" />
  </defs>
  <sodipodi:namedview
     id="base"
     pagecolor="#ffffff"
     bordercolor="#666666"
     borderopacity="1.0"
     inkscape:pageopacity="0.0"
     inkscape:pageshadow="2"
     inkscape:zoom="5.6"
     inkscape:cx="75.664745"
     inkscape:cy="38.065109"
     inkscape:document-units="mm"
     inkscape:current-layer="layer1"
     showgrid="false"
     inkscape:window-width="1920"
     inkscape:window-height="1017"
     inkscape:window-x="1912"
     inkscape:window-y="-8"
     inkscape:window-maximized="1" />
  <metadata
     id="metadata5">
    <rdf:RDF>
      <cc:Work
         rdf:about="">
        <dc:format>image/svg+xml</dc:format>
        <dc:type
           rdf:resource="http://purl.org/dc/dcmitype/StillImage" />
        <dc:title></dc:title>
      </cc:Work>
    </rdf:RDF>
  </metadata>
  <g
     inkscape:label="Camada 1"
     inkscape:groupmode="layer"
     id="layer1"
     transform="translate(-68.754463,-152.71342)">
    <path
       style="fill:url(#radialGradient4538);fill-opacity:1;stroke:none;stroke-width:0.0404902;stroke-opacity:1"
       d="m 77.356005,152.71431 c -0.144475,-0.002 -0.289602,-5.4e-4 -0.435633,0.005 -4.672999,0.16617 -8.326387,4.08874 -8.160225,8.76174 0.166162,4.673 4.088738,8.32639 8.761739,8.16023 4.673002,-0.16617 8.326389,-4.08874 8.160225,-8.76174 -0.160971,-4.52697 -3.847398,-8.09722 -8.326106,-8.16488 z"
       id="path815"
       inkscape:connector-curvature="0"
       sodipodi:nodetypes="scscss" />
    <path
       style="fill:#ffffff;fill-opacity:1;stroke:none;stroke-width:0.21464896;stroke-opacity:1"
       d="m 77.221157,157.06779 a 2.4694502,2.5783239 0 0 0 -2.469485,2.57846 2.4694502,2.5783239 0 0 0 8.61e-4,0.0142 h -0.19674 c -0.248002,0 -0.447783,0.17723 -0.447783,0.39723 v 4.83788 c 0,0.22 0.199781,0.39684 0.447783,0.39684 h 5.331117 c 0.248002,0 0.447339,-0.17684 0.447339,-0.39684 v -4.83788 c 0,-0.22 -0.199337,-0.39723 -0.447339,-0.39723 h -0.19674 a 2.4694502,2.5783239 0 0 0 4.46e-4,-0.0142 2.4694502,2.5783239 0 0 0 -2.469487,-2.57846 z m 0,1.10009 a 1.4160484,1.4784794 0 0 1 1.41635,1.47837 1.4160484,1.4784794 0 0 1 -8.62e-4,0.0142 h -2.830917 a 1.4160484,1.4784794 0 0 1 -4.46e-4,-0.0142 1.4160484,1.4784794 0 0 1 1.415904,-1.47837 z m 0,2.96346 a 0.77963547,0.69162234 0 0 1 0.779393,0.69141 0.77963547,0.69162234 0 0 1 -0.458912,0.62941 l 0.465144,1.36978 h -1.571249 l 0.465144,-1.36939 a 0.77963547,0.69162234 0 0 1 -0.459357,-0.6298 0.77963547,0.69162234 0 0 1 0.779837,-0.69141 z"
       id="rect829"
       inkscape:connector-curvature="0" />
  </g>
</svg>
